<svg xmlns="http://www.w3.org/2000/svg" data-name="Layer 1" width="525.56304" height="580.29729" viewBox="0 0 525.56304 580.29729" xmlns:xlink="http://www.w3.org/1999/xlink"><path d="M628.77094,710.50833c29.14785-17.88633,50.88392-50.8707,47.5438-84.905a157.56429,157.56429,0,0,1-98.48368,44.76113c-14.30478,1.03973-30.32341.7067-40.73021,10.57628-6.47548,6.141-9.40464,15.29421-9.78484,24.21012-.38,8.91635,1.52458,17.75413,3.41845,26.47533l-.58211,2.15045C564.34891,733.44271,599.6231,728.39466,628.77094,710.50833Z" transform="translate(-337.21848 -159.85135)" fill="#f0f0f0"/><path d="M675.59766,625.5765a134.67508,134.67508,0,0,1-55.14489,61.84535,57.99558,57.99558,0,0,1-16.80423,6.91438,33.26319,33.26319,0,0,1-17.46867-1.14658c-5.27267-1.69909-10.46929-4.04768-16.06317-4.43548a20.3671,20.3671,0,0,0-15.54811,5.975c-5.17566,4.94033-8.26751,11.44573-11.07,17.91254-3.11163,7.18015-6.22988,14.68739-12.31142,19.90283-.73687.63193.28675,1.73834,1.0225,1.10737,10.58085-9.074,12.12537-24.05153,20.53748-34.68352,3.92525-4.96108,9.36936-8.76929,15.89815-8.75911,5.70914.00891,11.07,2.42621,16.39383,4.19272a35.4943,35.4943,0,0,0,17.03882,1.75751,53.61582,53.61582,0,0,0,17.00808-6.2428,130.65894,130.65894,0,0,0,32.19746-25.11893,137.06342,137.06342,0,0,0,25.756-38.78118c.39025-.88531-1.05411-1.31963-1.44181-.4401Z" transform="translate(-337.21848 -159.85135)" fill="#fff"/><path d="M628.58846,683.27779a20.20556,20.20556,0,0,0,25.63353,5.24228c.84828-.47.15781-1.81024-.6916-1.33963a18.70991,18.70991,0,0,1-23.83456-4.92516c-.5947-.76613-1.69867.26075-1.10737,1.02251Z" transform="translate(-337.21848 -159.85135)" fill="#fff"/><path d="M588.73987,694.40327a38.94454,38.94454,0,0,1,13.22139-25.114c.7346-.63451-.28879-1.74111-1.02251-1.10737a40.50826,40.50826,0,0,0-13.70493,26.16138c-.10545.966,1.40117,1.02079,1.506.06Z" transform="translate(-337.21848 -159.85135)" fill="#fff"/><path d="M660.139,652.75191a11.4373,11.4373,0,0,1-3.98457-10.09473c.11764-.96421-1.38918-1.01794-1.506-.06a12.81648,12.81648,0,0,0,4.38325,11.17725.779.779,0,0,0,1.06494.04243.75744.75744,0,0,0,.04243-1.06494Z" transform="translate(-337.21848 -159.85135)" fill="#fff"/><path d="M580.30677,560.878c-.09058.6-.18116,1.2-.28307,1.80579a150.62448,150.62448,0,0,1-5.718,23.75477c-.18734.60235-.38626,1.21-.59051,1.80566a158.79028,158.79028,0,0,1-28.70343,50.93037,154.20465,154.20465,0,0,1-16.39955,16.7337c-8.125,7.11734-17.50091,14.18789-22.64866,23.3053a26.45431,26.45431,0,0,0-1.4632,2.929l23.07366,50.75707c.11033.089.20939.18388.32.27348l.8286,2.0687c.322-.24462.65066-.50525.97263-.74987.18737-.14112.36959-.29355.557-.43468.12328-.09766.24637-.19592.3632-.277.04115-.03236.082-.06528.11169-.09239.11682-.08109.21673-.16881.322-.24462q2.7619-2.17767,5.5028-4.40173c.01159-.00527.01159-.00527.018-.02185,13.894-11.33306,26.964-23.92562,37.70719-38.10162.32308-.42661.658-.85793.97055-1.30773a147.14643,147.14643,0,0,0,12.781-20.32882,130.08839,130.08839,0,0,0,5.43607-11.98725A108.1739,108.1739,0,0,0,600.72152,624.26c1.33607-22.57407-4.56232-45.32416-19.27785-62.11057C581.06692,561.72031,580.69512,561.30186,580.30677,560.878Z" transform="translate(-337.21848 -159.85135)" fill="#f0f0f0"/><path d="M579.71443,561.28494A134.675,134.675,0,0,1,572.9195,643.866a57.99543,57.99543,0,0,1-9.25431,15.63806,33.26323,33.26323,0,0,1-14.63806,9.60187c-5.23291,1.81788-10.79613,3.07139-15.496,6.12965a20.36711,20.36711,0,0,0-8.81693,14.13174c-1.15805,7.06068.29,14.11638,1.94581,20.96706,1.83849,7.60637,3.86861,15.47788,2.1529,23.30363-.20788.9482,1.27556,1.21532,1.48313.26855,2.98505-13.61546-4.79926-26.50411-4.48385-40.05783.14718-6.32441,2.20119-12.64279,7.42019-16.56544,4.5638-3.43018,10.29953-4.72772,15.61387-6.52257a35.49425,35.49425,0,0,0,14.66268-8.85527,53.61569,53.61569,0,0,0,9.8214-15.22457,130.659,130.659,0,0,0,10.58454-39.44115,137.06311,137.06311,0,0,0-2.78424-46.47148c-.22142-.94183-1.63616-.419-1.41618.51668Z" transform="translate(-337.21848 -159.85135)" fill="#fff"/><path d="M576.92038,635.659a20.20555,20.20555,0,0,0,23.62316-11.24748c.39434-.886-.96389-1.54038-1.35876-.65323a18.70989,18.70989,0,0,1-21.99584,10.41759c-.93611-.25366-1.19931,1.23091-.26856,1.48312Z" transform="translate(-337.21848 -159.85135)" fill="#fff"/><path d="M551.80182,668.53365a38.94454,38.94454,0,0,1-4.56383-28.01233c.20451-.9489-1.27886-1.21631-1.48313-.26855a40.50821,40.50821,0,0,0,4.80834,29.13971c.49742.8348,1.73334-.02856,1.23862-.85883Z" transform="translate(-337.21848 -159.85135)" fill="#fff"/><path d="M583.733,592.29019a11.4373,11.4373,0,0,1-9.25919-5.66109c-.48659-.8407-1.722.02361-1.23862.85883a12.81643,12.81643,0,0,0,10.22925,6.28539.779.779,0,0,0,.87584-.60729.75743.75743,0,0,0-.60728-.87584Z" transform="translate(-337.21848 -159.85135)" fill="#fff"/><polygon points="102.687 565.457 117.324 565.456 124.287 509 102.685 509.001 102.687 565.457" fill="#ffb6b6"/><path d="M436.17229,720.52965l4.11985-.00017,16.08455-6.54121,8.62083,6.54021h.00116a18.37067,18.37067,0,0,1,18.3697,18.3694v.59694l-47.19522.00175Z" transform="translate(-337.21848 -159.85135)" fill="#2f2e41"/><polygon points="170.687 565.457 185.324 565.456 192.287 509 170.685 509.001 170.687 565.457" fill="#ffb6b6"/><path d="M504.17229,720.52965l4.11985-.00017,16.08455-6.54121,8.62083,6.54021h.00116a18.37067,18.37067,0,0,1,18.3697,18.3694v.59694l-47.19522.00175Z" transform="translate(-337.21848 -159.85135)" fill="#2f2e41"/><polygon points="91.037 204.001 110.387 263.5 171.387 261.5 152.643 204.001 91.037 204.001" fill="#e6e6e6"/><path d="M519.60574,416.35135l-115,3,2,56s-2,15,2,19,6,4,4,11,8.56693,18.43307,7.28346,19.71654-4.28346,8.28346-4.28346,8.28346l10,57s7,99,9,101,4,0,2,5-4,3-2,5a73.65012,73.65012,0,0,1,5,6H463.7829s1.82284-10,1.82284-11,2-7,2-8-1.76772-2.76772-1.76772-2.76772a32.89916,32.89916,0,0,1-1.23228-6.23228c0-2-6-79-6-79l12-100,29,98s0,86,2,88,2,1,1,5-5,3-2,6,4-2,3,3l-1,5,30,.42914s4-8.42914,2-11.42914-1.88-2.1811.56-7.09055,3.44-5.90945,2.44-6.90945-1-6.3189-1-6.3189l-5-95.6811s-1-101-1-104a9.97451,9.97451,0,0,1,.83071-4.49876v-4.0721l-3.83071-14.42914Z" transform="translate(-337.21848 -159.85135)" fill="#2f2e41"/><path d="M509.10574,270.85135l-35-13-58,4-13.4296,6.26715a23.2377,23.2377,0,0,0-12.9511,25.657l17.3807,86.07583-11,85s54.5,26.5,71.5-42.5l6-26s2,80,59,63c0,0-1-16-2-22s-3-6-4-9-3,0-1-6-16-48-16-48Z" transform="translate(-337.21848 -159.85135)" fill="#2f2e41"/><polygon points="125.387 177.5 88.033 101.369 97.387 84.5 127.698 84.5 139.705 99.047 125.387 177.5" fill="#e6e6e6"/><path d="M443.96673,420.20166a11.16677,11.16677,0,0,1-11.73088-12.4732l-35.68176-17.36518,17.74115-10.5115,31.1641,18.10179a11.2273,11.2273,0,0,1-1.49261,22.24809Z" transform="translate(-337.21848 -159.85135)" fill="#ffb8b8"/><path d="M370.68044,377.79032c-1.70214-2.07813-3.68115-16.563.04981-19.96192,3.14648-2.86621,2.46-4.19873.45947-7.19971-1.7373-2.606,11.59912-50.72265,19.26514-73.081a12.42107,12.42107,0,0,1,23.94092,6.40039c2.70605,28.625-1.14209,48.147-12.10791,61.36768l33.87793,44.88183L429.949,412.993S372.23171,379.68387,370.68044,377.79032Z" transform="translate(-337.21848 -159.85135)" fill="#2f2e41"/><circle cx="112.88726" cy="43" r="31" fill="#ffb8b8"/><path d="M482.9338,180.3627c-.82373-7.41406-11.533-14.82812-30.48-19.77081-18.947-4.94275-28.83246,16.47565-28.83246,16.47565-13.1806,6.59027-5.35474,41.60119-1.23572,38.306,4.119-3.29511,7.826,2.05951,7.826,2.05951l3.04791-27.43177c4.33893,3.325,9.22956,6.1402,14.479,5.30341l-6.42468-6.32581q9.13357,3.97413,18.26721,7.94825-3.02363-4.16052-6.04718-8.321c.208-.00671.41675-.01587.62524-.0238a28.97171,28.97171,0,0,0,9.24451,5.16925c3.99567,1.14526,8.78332.5257,11.52093-2.602a8.49931,8.49931,0,0,0,1.63758-2.94714c4.97125,3.4049,5.95977,10.69549,5.95977,10.69549S483.75753,187.77677,482.9338,180.3627Z" transform="translate(-337.21848 -159.85135)" fill="#2f2e41"/><circle cx="118.60217" cy="189.28346" r="53.64177" fill="#f50057"/><path d="M465.52425,385.443a11.16678,11.16678,0,0,1,17.00768-1.98319l35.213-18.2971-2.13615,20.5104L482.4974,399.90383A11.22729,11.22729,0,0,1,465.52425,385.443Z" transform="translate(-337.21848 -159.85135)" fill="#ffb8b8"/><path d="M487.26248,398.993l-6.2168-22.79541,30.87793-29.88183C500.95779,333.095,497.10964,313.573,499.8157,284.948a12.42086,12.42086,0,0,1,23.94092-6.40039c7.666,22.3584,16.36962,49.88086,14.29638,54.02734-.27588.55176-.52636,1.04444-.75146,1.48682-1.85694,3.65137-1.85694,3.65137-.04932,6.00049.22559.29346.47705.62012.75342.98926.70019.9331,1.45459,1.81054,2.18408,2.65869,2.34961,2.73193,4.56934,5.3125,2.832,7.91845-2.00049,3.001-2.687,4.3335.45948,7.19971,3.731,3.39893,1.75195,17.88379.0498,19.96192-1.55127,1.89355-46.727,17.022-55.76709,20.03515Z" transform="translate(-337.21848 -159.85135)" fill="#2f2e41"/><path d="M633.60908,740.14865H338.13782a.91934.91934,0,0,1,0-1.83869H633.60908a.91935.91935,0,1,1,0,1.83869Z" transform="translate(-337.21848 -159.85135)" fill="#ccc"/><path d="M854.28152,248.677H746.22927a8.5095,8.5095,0,0,1-8.5-8.5V186.39725a8.50951,8.50951,0,0,1,8.5-8.5H854.28152a8.50951,8.50951,0,0,1,8.5,8.5V240.177A8.5095,8.5095,0,0,1,854.28152,248.677Z" transform="translate(-337.21848 -159.85135)" fill="#e6e6e6"/><path d="M836.53005,276.84842H763.74148a8.07569,8.07569,0,0,1,0-16.15137h72.78857a8.07569,8.07569,0,1,1,0,16.15137Z" transform="translate(-337.21848 -159.85135)" fill="#e6e6e6"/><path d="M854.28152,403.03263H746.22927a8.50951,8.50951,0,0,1-8.5-8.5V340.75284a8.50951,8.50951,0,0,1,8.5-8.5H854.28152a8.50951,8.50951,0,0,1,8.5,8.5v53.77979A8.50951,8.50951,0,0,1,854.28152,403.03263Z" transform="translate(-337.21848 -159.85135)" fill="#e6e6e6"/><path d="M836.53005,429.34854H763.74148a8.07568,8.07568,0,1,1,0-16.15136h72.78857a8.07568,8.07568,0,1,1,0,16.15136Z" transform="translate(-337.21848 -159.85135)" fill="#e6e6e6"/><path d="M854.28152,556.38846H746.22927a8.50982,8.50982,0,0,1-8.5-8.5V494.10868a8.5095,8.5095,0,0,1,8.5-8.5H854.28152a8.5095,8.5095,0,0,1,8.5,8.5v53.77978A8.50982,8.50982,0,0,1,854.28152,556.38846Z" transform="translate(-337.21848 -159.85135)" fill="#e6e6e6"/><path d="M836.53005,582.84842H763.74148a8.07569,8.07569,0,0,1,0-16.15137h72.78857a8.07569,8.07569,0,1,1,0,16.15137Z" transform="translate(-337.21848 -159.85135)" fill="#e6e6e6"/><path d="M449.50391,374.23a4.50007,4.50007,0,0,1-2.1709-.56543A4.44151,4.44151,0,0,1,445,369.7207V332.54688a4.49981,4.49981,0,0,1,6.9126-3.79834l35.26318,18.58691a4.50008,4.50008,0,0,1,0,7.59668L451.9126,373.519A4.47852,4.47852,0,0,1,449.50391,374.23Z" transform="translate(-337.21848 -159.85135)" fill="#fff"/><path d="M788.89911,231.78142a3.6333,3.6333,0,0,1-1.75277-.45653,3.586,3.586,0,0,1-1.88364-3.18422V198.12685a3.63309,3.63309,0,0,1,5.58116-3.06674L819.315,210.067a3.63333,3.63333,0,0,1,0,6.13349l-28.47118,15.00691A3.61584,3.61584,0,0,1,788.89911,231.78142Z" transform="translate(-337.21848 -159.85135)" fill="#fff"/><path d="M788.63641,386.78142a3.63324,3.63324,0,0,1-1.75276-.45653A3.586,3.586,0,0,1,785,383.14067V353.12685a3.6331,3.6331,0,0,1,5.58117-3.06674l28.47118,15.0069a3.63334,3.63334,0,0,1,0,6.13349l-28.47118,15.00691A3.6159,3.6159,0,0,1,788.63641,386.78142Z" transform="translate(-337.21848 -159.85135)" fill="#fff"/><path d="M788.37372,541.78142a3.6333,3.6333,0,0,1-1.75277-.45653,3.58606,3.58606,0,0,1-1.88365-3.18422V508.12685a3.6331,3.6331,0,0,1,5.58117-3.06674l28.47118,15.0069a3.63333,3.63333,0,0,1,0,6.13349l-28.47118,15.00691A3.61584,3.61584,0,0,1,788.37372,541.78142Z" transform="translate(-337.21848 -159.85135)" fill="#fff"/></svg>